<svg xmlns="http://www.w3.org/2000/svg" width="25" height="25" viewBox="0 0 25 25">
  <g id="Group_385" data-name="Group 385" transform="translate(-2091 -1927)">
    <rect id="Rectangle_544" data-name="Rectangle 544" width="25" height="25" transform="translate(2091 1927)" fill="#b8c0d6" opacity="0"/>
    <path id="Path_1070" data-name="Path 1070" d="M2096.124,1938.937h0Zm-2.609,1.969a1.56,1.56,0,0,0,2.094,2.313Zm2.094-6.25a1.56,1.56,0,0,0-2.094,2.313Zm2.781,9.234a1.556,1.556,0,0,0,1.719,2.594Zm1.719-12.5a1.556,1.556,0,0,0-1.719,2.594Zm8.516,7.547h0Zm-5.625,8.125a1.563,1.563,0,0,0,1.875,2.5Zm1.875-18.75a1.563,1.563,0,0,0-1.875,2.5Zm-10.313,10.625a2.693,2.693,0,0,1-1.047,1.969l2.094,2.313a5.77,5.77,0,0,0,2.078-4.281Zm-1.047-1.969a2.693,2.693,0,0,1,1.047,1.969h3.125a5.77,5.77,0,0,0-2.078-4.281Zm7.3,1.969a5.594,5.594,0,0,1-2.422,4.953l1.719,2.594a8.653,8.653,0,0,0,3.828-7.547Zm-2.422-4.953a5.594,5.594,0,0,1,2.422,4.953h3.125a8.653,8.653,0,0,0-3.828-7.547Zm8.672,4.953a10.111,10.111,0,0,1-4.063,8.125l1.875,2.5a13.209,13.209,0,0,0,5.312-10.625Zm-4.063-8.125a10.111,10.111,0,0,1,4.063,8.125h3.125a13.209,13.209,0,0,0-5.312-10.625Z" transform="translate(1.126 0.563)" fill="#b8c0d6"/>
  </g>
</svg>
