<svg xmlns="http://www.w3.org/2000/svg" width="21.12" height="17.76" viewBox="0 0 21.12 17.76">
  <g id="telegram_non_rect." data-name="telegram non rect." transform="translate(0 0)">
    <path id="Path_10" data-name="Path 10" d="M84.59,95.415c-.629,0-.522-.238-.739-.839L82,88.471,96.243,80" transform="translate(-76.646 -78.731)" fill="#279dd8"/>
    <path id="Path_11" data-name="Path 11" d="M98,149.371a1.243,1.243,0,0,0,.971-.487l2.59-2.525-3.23-1.953" transform="translate(-90.056 -132.687)" fill="#1e95d3"/>
    <path id="Path_12" data-name="Path 12" d="M57.193,83.9l7.827,5.8c.893.494,1.538.238,1.76-.831l3.186-15.052c.326-1.311-.5-1.906-1.353-1.517L49.9,79.53c-1.277.514-1.27,1.228-.233,1.546l4.8,1.5,11.115-7.03c.525-.319,1.006-.148.611.2" transform="translate(-48.919 -72.18)" fill="#33a9de"/>
  </g>
</svg>
