<svg xmlns="http://www.w3.org/2000/svg" width="60" height="60" viewBox="0 0 60 60">
  <g id="Group_1258" data-name="Group 1258" transform="translate(-585 -4333)">
    <circle id="Ellipse_73" data-name="Ellipse 73" cx="30" cy="30" r="30" transform="translate(585 4333)" fill="#fff" opacity="0"/>
    <g id="pdf" transform="translate(552.455 4343)">
      <g id="Group_448" data-name="Group 448" transform="translate(46.545)">
        <g id="Group_447" data-name="Group 447" transform="translate(0)">
          <path id="Path_1534" data-name="Path 1534" d="M156,279.7a2.955,2.955,0,0,0-2.009-.564,11.111,11.111,0,0,0-2.018.155v7.118h1.476v-2.582a3.475,3.475,0,0,0,.507,0,2.893,2.893,0,0,0,2.142-.755,2.424,2.424,0,0,0,.6-1.709A2.2,2.2,0,0,0,156,279.7Zm-1.813,2.926a1.105,1.105,0,0,1-.24-.017l.044-.009a2.089,2.089,0,0,1-.5,0v-2.164a2.34,2.34,0,0,1,.613-.064,1.017,1.017,0,0,1,1.164,1.055A1.144,1.144,0,0,1,154.185,282.627Z" transform="translate(-143.918 -257.319)" fill="#fff"/>
          <path id="Path_1535" data-name="Path 1535" d="M69.656,0H50.1a3.6,3.6,0,0,0-3.556,3.636V36.364A3.6,3.6,0,0,0,50.1,40H74.989a3.6,3.6,0,0,0,3.556-3.636V10Zm7.111,36.364a1.8,1.8,0,0,1-1.778,1.818H50.1a1.8,1.8,0,0,1-1.778-1.818V3.636A1.8,1.8,0,0,1,50.1,1.818h16v9.091a1.8,1.8,0,0,0,1.778,1.818h8.889V36.364ZM67.878,10.909V1.818h.889l8,9.091H67.878Z" transform="translate(-46.545)" fill="#fff"/>
          <path id="Path_1536" data-name="Path 1536" d="M226.5,280a3.973,3.973,0,0,0-2.693-.827,12.126,12.126,0,0,0-2.018.155v7.118a11.857,11.857,0,0,0,1.689.109,4.445,4.445,0,0,0,3.04-.909,3.82,3.82,0,0,0,1.093-2.918A3.318,3.318,0,0,0,226.5,280Zm-.462,2.727c-.009,1.718-.889,2.527-2.231,2.518v-.009a2.535,2.535,0,0,1-.516,0V280.5a2.862,2.862,0,0,1,.676-.064,1.971,1.971,0,0,1,2.088,1.855A2.05,2.05,0,0,1,226.038,282.727Z" transform="translate(-208.402 -257.355)" fill="#fff"/>
          <path id="Path_1537" data-name="Path 1537" d="M314.88,287.3h1.493v-2.9h2.364v-1.327h-2.364v-1.645h2.533v-1.336H314.88Z" transform="translate(-294.382 -258.205)" fill="#fff"/>
        </g>
      </g>
    </g>
  </g>
</svg>
