<svg xmlns="http://www.w3.org/2000/svg" xmlns:xlink="http://www.w3.org/1999/xlink" width="65" height="65" viewBox="0 0 65 65">
  <defs>
    <linearGradient id="linear-gradient" x1="0.5" x2="0.5" y2="0.821" gradientUnits="objectBoundingBox">
      <stop offset="0" stop-color="#fff"/>
      <stop offset="1" stop-color="#fff" stop-opacity="0"/>
    </linearGradient>
    <linearGradient id="linear-gradient-2" x1="0.489" y1="0.509" x2="0.487" y2="0.824" xlink:href="#linear-gradient"/>
  </defs>
  <g id="Group_1363" data-name="Group 1363" transform="translate(-420 -2080)">
    <circle id="Ellipse_86" data-name="Ellipse 86" cx="32.5" cy="32.5" r="32.5" transform="translate(420 2080)" fill="#fff" opacity="0"/>
    <path id="Subtraction_6" data-name="Subtraction 6" d="M-745.661,22.5h-6.9a4.685,4.685,0,0,1-2.354-3.2,4.492,4.492,0,0,1,.961-3.791l9.183-13.79,1.282.853-.036-.032-1.245-.821.046-.092.077-.077A4.659,4.659,0,0,1-741.173,0h12.55a4.556,4.556,0,0,1,4.207,2.713,4.541,4.541,0,0,1-.738,4.935l-2.311-2.041a1.484,1.484,0,0,0,.245-1.617,1.518,1.518,0,0,0-1.4-.918h-12.55a1.515,1.515,0,0,0-1.116.477l-9.107,13.7-.062.093-.061.076-1.1-.978-.035-.023,1.134,1a1.508,1.508,0,0,0-.255,1.64,1.526,1.526,0,0,0,1.412.909h.571a4.54,4.54,0,0,1,4.13,2.536Zm17.227,0h-5.9a4.2,4.2,0,0,1-2.017-2.921,4,4,0,0,1,.94-3.347c.082-.1.133-.157.173-.2s.061-.069.089-.1l7.262-9.814c.114-.147.25-.313.417-.507l2.312,2.042c-.14.156-.2.233-.247.293l-7.261,9.8a6.393,6.393,0,0,1-.417.491,1.028,1.028,0,0,0-.148,1.113,1.052,1.052,0,0,0,.965.623,4.07,4.07,0,0,1,3.827,2.535Z" transform="translate(1192 2091)" fill="#fff"/>
    <path id="Path_1649" data-name="Path 1649" d="M-755.841,39.928a.4.4,0,0,1-.338-.184.435.435,0,0,1-.031-.384l.122-.2.017-.029.046-.076a4.928,4.928,0,0,0,.262-.553l4.625-11a4.507,4.507,0,0,1,.258-.458l.066-.11a4.555,4.555,0,0,0-.14-4.936h10.933a4.054,4.054,0,0,0,2.76,1.036,1.04,1.04,0,0,1,1.02.763,1.036,1.036,0,0,1-.45,1.187l-.061.047-.062.046-18.844,14.81A.384.384,0,0,1-755.841,39.928Zm19.026-14.85Z" transform="translate(1197 2091)" fill="url(#linear-gradient)"/>
    <path id="Path_1063" data-name="Path 1063" d="M1966.7,2270.276l-.833-1.291-.062.046-.062.046Zm-18.933,14.881.817,1.305.062-.046.062-.046Zm-2.883-24.771,1.156,1.029.062-.077.062-.092Zm9.189-13.821-1.156-1.013-.077.077-.047.092Zm-4.07,24.341-1.434-.6Zm.416-.768,1.326.8Zm-5.042,11.779-1.418-.6Zm25.532-30.883-1.233-.921Zm.339-.4-1.156-1.029Zm-7.6,10.2,1.249.906Zm-.324.4,1.156,1Zm-6.938-14.159h12.55V2244h-12.55Zm-10.222,14.175,9.189-13.821-2.56-1.7-9.2,13.822Zm1.6,2.718h-.57v3.072h.57Zm-.971,18.536,4.625-11-2.852-1.2-4.61,11.011Zm18.949-13.422-18.933,14.881,1.9,2.411,18.949-14.881Zm3.932-18.966-7.262,9.813,2.483,1.812,7.262-9.8Zm-4.379,13.852a1.06,1.06,0,0,1-.817-1.735l-2.328-2a4.122,4.122,0,0,0,3.145,6.8Zm2.22,7.617a4.126,4.126,0,0,0-2.22-7.617v3.072a1.057,1.057,0,0,1,.571,1.95Zm-20.8,15.419a3.471,3.471,0,0,0,1.866-.538l-1.65-2.6a.355.355,0,0,1-.216.062Zm-3.13-4.991a3.47,3.47,0,0,0,3.13,4.991v-3.071a.4.4,0,0,1-.339-.185.43.43,0,0,1-.031-.384Zm4.178-14.973a1.535,1.535,0,0,1,1.326,2.319l2.652,1.582a4.616,4.616,0,0,0-3.978-6.972Zm-4.039-7.663a4.608,4.608,0,0,0,3.469,7.663v-3.072a1.531,1.531,0,0,1-1.156-2.549Zm25.208-12.3a1.531,1.531,0,0,1,1.156,2.534l2.313,2.042a4.607,4.607,0,0,0-3.469-7.648Zm-12.55-3.071a4.661,4.661,0,0,0-3.469,1.551l2.313,2.042a1.515,1.515,0,0,1,1.156-.522Zm-4.964,27.5a5.71,5.71,0,0,1,.324-.568l-2.652-1.582a7.761,7.761,0,0,0-.524.952Zm-7.462,9.813a1.152,1.152,0,0,1-.123.23c-.046.092-.154.276-.247.461l2.76,1.351.185-.307a4.861,4.861,0,0,0,.262-.552Zm28.2-29.378c.046-.062.108-.138.247-.292l-2.313-2.042c-.093.108-.262.307-.416.507Zm-9.744,7.986c-.062.077-.108.123-.262.307l2.328,2c.077-.077.262-.292.416-.491Z" transform="translate(-1505.562 -153)" fill="url(#linear-gradient-2)"/>
  </g>
</svg>
