<svg xmlns="http://www.w3.org/2000/svg" xmlns:xlink="http://www.w3.org/1999/xlink" width="65" height="65" viewBox="0 0 65 65">
  <defs>
    <linearGradient id="linear-gradient" y1="0.5" x2="1.057" y2="0.5" gradientUnits="objectBoundingBox">
      <stop offset="0" stop-color="#fff"/>
      <stop offset="1" stop-color="#fff" stop-opacity="0"/>
    </linearGradient>
  </defs>
  <g id="Group_1362" data-name="Group 1362" transform="translate(-420 -2080)">
    <circle id="Ellipse_86" data-name="Ellipse 86" cx="32.5" cy="32.5" r="32.5" transform="translate(420 2080)" fill="#fff" opacity="0"/>
    <path id="Subtraction_5" data-name="Subtraction 5" d="M-359.5,37a1.37,1.37,0,0,1-1.005-.442L-376.8,18.834a11,11,0,0,1-3.2-7.8,11,11,0,0,1,3.222-7.8A10.913,10.913,0,0,1-368.995,0a10.907,10.907,0,0,1,7.78,3.236l1.715,1.719,1-1v.022c-.547.54-1,.99-1,.995v3.3a1.368,1.368,0,0,1-.967-.4l-2.681-2.69A8.2,8.2,0,0,0-369,2.741a8.2,8.2,0,0,0-5.848,2.433,8.338,8.338,0,0,0,0,11.745l-.966.968.012-.011.954-.957.014.013.026.026,15.305,16.65V37l0,0Z" transform="translate(812 2096)" fill="#fff"/>
    <path id="Path_1646" data-name="Path 1646" d="M-359.5,41h0V8.969c.218-.219,2.158-2.16,2.629-2.556A10.68,10.68,0,0,1-350,4a10.913,10.913,0,0,1,7.783,3.236,11,11,0,0,1,3.222,7.8,11,11,0,0,1-3.2,7.8L-358.5,40.559A1.369,1.369,0,0,1-359.5,41Z" transform="translate(812 2092)" opacity="0.5" fill="url(#linear-gradient)"/>
  </g>
</svg>
