<svg xmlns="http://www.w3.org/2000/svg" width="24" height="24" viewBox="0 0 24 24">
  <g id="viber" transform="translate(-456 -372)">
    <g id="viber-2" data-name="viber" transform="translate(457.789 373.252)">
      <path id="Path_1525" data-name="Path 1525" d="M237.45,151.63h-.937c0-1.036-.369-1.4-1.4-1.4v-.936A2.077,2.077,0,0,1,237.45,151.63Zm0,0" transform="translate(-224.906 -142.812)" fill="#665cac"/>
      <path id="Path_1526" data-name="Path 1526" d="M239.323,110.835h-.936a2.983,2.983,0,0,0-3.278-3.278v-.936A3.91,3.91,0,0,1,239.323,110.835Zm0,0" transform="translate(-224.917 -102.001)" fill="#665cac"/>
      <path id="Path_1527" data-name="Path 1527" d="M241.2,70.04h-.936a4.878,4.878,0,0,0-5.151-5.151v-.937A5.763,5.763,0,0,1,241.2,70.04Zm0,0" transform="translate(-224.932 -61.146)" fill="#665cac"/>
      <path id="Path_1528" data-name="Path 1528" d="M6.016,21.5V18.3l-.992-.116A5.064,5.064,0,0,1,.607,13.557C.5,12.138.445,10.7.445,9.265S.5,6.392.607,4.973A5.117,5.117,0,0,1,5.1.334a46.256,46.256,0,0,1,11.1,0,5.117,5.117,0,0,1,4.5,4.639c.11,1.419.163,2.861.163,4.292s-.058,2.878-.163,4.292a5.069,5.069,0,0,1-4.4,4.628,45.977,45.977,0,0,1-5,.342ZM10.659.925a45.12,45.12,0,0,0-5.438.33A4.185,4.185,0,0,0,1.536,5.049c-.11,1.39-.163,2.815-.163,4.216s.052,2.826.163,4.222a4.139,4.139,0,0,0,3.6,3.782q.69.087,1.387.151l.424.041v2.456l4.109-2.311h.116a45.071,45.071,0,0,0,5.014-.336,4.131,4.131,0,0,0,3.592-3.776c.11-1.39.163-2.815.163-4.222s-.052-2.826-.163-4.222a4.186,4.186,0,0,0-3.691-3.794,45.233,45.233,0,0,0-5.432-.33Zm0,0" transform="translate(-0.445 0)" fill="#665cac"/>
      <path id="Path_1529" data-name="Path 1529" d="M94.171,107.191h-.433a7.968,7.968,0,0,1-7.96-7.96V98.8a2.791,2.791,0,0,1,.825-1.99l.386-.386a1.61,1.61,0,0,1,1.129-.468,1.587,1.587,0,0,1,1.13.468l1.212,1.212a1.592,1.592,0,0,1,.468,1.129,1.61,1.61,0,0,1-.468,1.13l-.111.111a1.229,1.229,0,0,0,0,1.732l.878.878a1.274,1.274,0,0,0,1.738,0l.111-.111a1.586,1.586,0,0,1,1.13-.462,1.609,1.609,0,0,1,1.13.468l1.211,1.211a1.6,1.6,0,0,1,0,2.259l-.386.386a2.792,2.792,0,0,1-1.99.825Zm-6.052-10.3a.667.667,0,0,0-.468.193l-.386.386a1.862,1.862,0,0,0-.55,1.329v.433a7.029,7.029,0,0,0,7.023,7.023h.433a1.861,1.861,0,0,0,1.323-.55l.386-.386a.664.664,0,0,0,0-.937l-1.206-1.211a.685.685,0,0,0-.937,0l-.094.094a2.166,2.166,0,0,1-3.079.017l-.878-.878a2.176,2.176,0,0,1-.632-1.533,2.148,2.148,0,0,1,.632-1.527l.111-.111a.668.668,0,0,0,.193-.468.661.661,0,0,0-.193-.468l-1.212-1.212a.655.655,0,0,0-.468-.193Zm0,0" transform="translate(-82.101 -91.832)" fill="#665cac"/>
    </g>
    <rect id="Rectangle_977" data-name="Rectangle 977" width="24" height="24" transform="translate(456 372)" fill="none"/>
  </g>
</svg>
