<svg xmlns="http://www.w3.org/2000/svg" width="24" height="24" viewBox="0 0 24 24">
  <g id="vk-social-network-logo_1_" data-name="vk-social-network-logo (1)" transform="translate(0 -107.749)">
    <rect id="Rectangle_26" data-name="Rectangle 26" width="24" height="24" transform="translate(0 107.748)" fill="none"/>
    <path id="vk_none_rect." data-name="vk none rect." d="M23.873,130.32a1.683,1.683,0,0,0-.081-.159,12.593,12.593,0,0,0-2.387-2.808l-.025-.025-.012-.012-.013-.013h-.013q-.8-.775-1.012-1.042a.991.991,0,0,1-.175-1.029,9.6,9.6,0,0,1,1.125-1.664q.513-.673.812-1.08,2.162-2.922,1.874-3.735l-.074-.127a.728.728,0,0,0-.387-.21,1.936,1.936,0,0,0-.8-.032l-3.6.025a.46.46,0,0,0-.25.006l-.163.038-.063.032-.05.038a.559.559,0,0,0-.138.133.875.875,0,0,0-.125.222,20.9,20.9,0,0,1-1.337,2.858q-.462.788-.85,1.366a6.557,6.557,0,0,1-.65.851,4.56,4.56,0,0,1-.475.438q-.213.165-.325.14l-.213-.051a.84.84,0,0,1-.281-.311,1.411,1.411,0,0,1-.144-.5q-.037-.3-.044-.514t.006-.61q.013-.394.013-.534,0-.483.019-1.048t.031-.9q.013-.33.012-.7a2.983,2.983,0,0,0-.044-.578,2,2,0,0,0-.131-.407.682.682,0,0,0-.256-.3,1.431,1.431,0,0,0-.419-.172,8.185,8.185,0,0,0-1.687-.165,8.072,8.072,0,0,0-2.986.305,1.688,1.688,0,0,0-.475.381q-.225.28-.063.3a1.524,1.524,0,0,1,1.062.546l.075.153a2.459,2.459,0,0,1,.175.584,5.988,5.988,0,0,1,.112.927,10.052,10.052,0,0,1,0,1.588q-.063.661-.119,1.029a2.086,2.086,0,0,1-.169.6,2.53,2.53,0,0,1-.15.279.217.217,0,0,1-.062.063.923.923,0,0,1-.337.064.785.785,0,0,1-.425-.178,3.018,3.018,0,0,1-.519-.489,6.538,6.538,0,0,1-.606-.87q-.337-.559-.7-1.321l-.2-.368q-.187-.356-.512-1.035t-.575-1.315a.836.836,0,0,0-.3-.406l-.063-.038a.851.851,0,0,0-.2-.108,1.309,1.309,0,0,0-.287-.082L.8,118.385a.862.862,0,0,0-.712.242l-.05.076a.417.417,0,0,0-.038.2,1.026,1.026,0,0,0,.075.343q.75,1.791,1.631,3.455t1.531,2.68q.65,1.016,1.325,1.918t.893,1.156q.219.254.344.381l.312.3a7.44,7.44,0,0,0,.881.73,15,15,0,0,0,1.287.839,6.918,6.918,0,0,0,1.643.673,5.593,5.593,0,0,0,1.824.21h1.437a.987.987,0,0,0,.662-.28l.05-.064a.85.85,0,0,0,.094-.235,1.31,1.31,0,0,0,.044-.349,4.253,4.253,0,0,1,.081-.984,2.617,2.617,0,0,1,.213-.661,1.623,1.623,0,0,1,.269-.375,1.091,1.091,0,0,1,.213-.184.806.806,0,0,1,.1-.044.784.784,0,0,1,.706.2,4.177,4.177,0,0,1,.762.737q.356.438.856.984a5.917,5.917,0,0,0,.875.813l.25.152a3.018,3.018,0,0,0,.65.28,1.379,1.379,0,0,0,.7.063l3.2-.051a1.43,1.43,0,0,0,.737-.159.626.626,0,0,0,.312-.349,1,1,0,0,0,.006-.432A1.615,1.615,0,0,0,23.873,130.32Z" transform="translate(0 -5.2)" fill="#5181b8"/>
  </g>
</svg>
