<svg xmlns="http://www.w3.org/2000/svg" width="64.32" height="56.419" viewBox="0 0 64.32 56.419">
  <g id="Group_1365" data-name="Group 1365" transform="translate(-480 -3177.581)">
    <circle id="Ellipse_87" data-name="Ellipse 87" cx="17.5" cy="17.5" r="17.5" transform="translate(480 3199)" fill="#4d7cff" opacity="0.2"/>
    <g id="puzzle" transform="translate(512.5 3172.609) rotate(45)">
      <path id="Path_1678" data-name="Path 1678" d="M452.879,123a.879.879,0,1,0,.879.879A.879.879,0,0,0,452.879,123Zm0,0" transform="translate(-412.273 -112.19)" fill="#4d7cff"/>
      <path id="Path_1679" data-name="Path 1679" d="M37.09,98.106H30a.879.879,0,0,0-.655,1.465,1.758,1.758,0,1,1-2.62,0,.879.879,0,0,0-.655-1.465H19.863V91.9a.879.879,0,0,0-1.465-.655,1.758,1.758,0,1,1,0-2.62.879.879,0,0,0,1.465-.655V80.879A.879.879,0,0,0,18.984,80H.879A.879.879,0,0,0,0,80.879V117.09a.879.879,0,0,0,.879.879H37.09a.879.879,0,0,0,.879-.879V98.984a.879.879,0,0,0-.879-.879ZM1.758,81.758H18.106v4.769a3.516,3.516,0,1,0,0,6.809v4.769H13.336a3.516,3.516,0,1,0-6.809,0H1.758Zm0,18.105H7.967A.879.879,0,0,0,8.622,98.4a1.758,1.758,0,1,1,2.62,0,.879.879,0,0,0,.655,1.465h6.209v4.769a3.516,3.516,0,1,0,0,6.809v4.769H1.758Zm34.453,16.348H19.863V110a.879.879,0,0,0-1.465-.655,1.758,1.758,0,1,1,0-2.62.879.879,0,0,0,1.465-.655v-6.21h4.769a3.516,3.516,0,1,0,6.809,0h4.769Zm0,0" transform="translate(0 -72.969)" fill="#4d7cff"/>
      <path id="Path_1680" data-name="Path 1680" d="M259.379,0H241.273a.879.879,0,0,0-.879.879V6.527a3.516,3.516,0,1,0,0,6.809v5.648a.878.878,0,0,0,.879.878h5.648a3.516,3.516,0,1,0,6.809,0h5.648a.879.879,0,0,0,.879-.879V.879A.879.879,0,0,0,259.379,0ZM258.5,18.105h-6.209a.879.879,0,0,0-.655,1.465,1.758,1.758,0,1,1-2.62,0,.879.879,0,0,0-.655-1.465h-6.209V11.9a.879.879,0,0,0-1.465-.655,1.758,1.758,0,1,1,0-2.62.879.879,0,0,0,1.465-.655V1.758H258.5Zm0,0" transform="translate(-215.258 0)" fill="#4d7cff"/>
      <path id="Path_1681" data-name="Path 1681" d="M409.879,41.758h2.9v2.9a.879.879,0,0,0,1.758,0V40.879a.879.879,0,0,0-.879-.879h-3.779a.879.879,0,0,0,0,1.758Zm0,0" transform="translate(-373.053 -36.484)" fill="#4d7cff"/>
    </g>
  </g>
</svg>
