<svg xmlns="http://www.w3.org/2000/svg" width="60" height="49.414" viewBox="0 0 60 49.414">
  <g id="Group_1364" data-name="Group 1364" transform="translate(-480 -3172)">
    <circle id="Ellipse_87" data-name="Ellipse 87" cx="18.5" cy="18.5" r="18.5" transform="translate(480 3184)" fill="#4d7cff" opacity="0.2"/>
    <g id="mortarboard" transform="translate(485 3172.001)">
      <path id="Path_1663" data-name="Path 1663" d="M246,261.074A1.074,1.074,0,1,0,247.074,260,1.075,1.075,0,0,0,246,261.074Zm0,0" transform="translate(-219.574 -232.071)" fill="#4d7cff"/>
      <path id="Path_1664" data-name="Path 1664" d="M54.258,10.688a1.074,1.074,0,0,0,0-2.043L27.833.052a1.077,1.077,0,0,0-.665,0L.742,8.645a1.074,1.074,0,0,0,0,2.043L11.387,14.15V29c0,3.691,8.353,5.371,16.113,5.371S43.614,32.694,43.614,29V14.15l7.09-2.306V32.41a3.222,3.222,0,0,0-.185,6l-1.942,9.714a1.074,1.074,0,0,0,1.053,1.285h4.3a1.074,1.074,0,0,0,1.053-1.285l-1.943-9.714a3.222,3.222,0,0,0-.185-6V11.146ZM51.778,34.374A1.074,1.074,0,1,1,50.7,35.448,1.075,1.075,0,0,1,51.778,34.374ZM50.94,47.265l.838-4.191.838,4.191ZM41.465,29c0,1.7-7.736,3.223-13.965,3.223-8.738,0-13.965-2.122-13.965-3.223V14.849l13.632,4.433a1.071,1.071,0,0,0,.665,0l13.632-4.433ZM27.5,17.131,4.548,9.667,27.5,2.2,50.452,9.667Zm0,0" fill="#4d7cff"/>
      <path id="Path_1665" data-name="Path 1665" d="M287.032,246.09c.034,0,.068,0,.1,0,3.6-.342,6.711-1.121,7.752-1.938a1.074,1.074,0,0,0-1.327-1.69c-.334.261-2.524,1.1-6.628,1.489a1.074,1.074,0,0,0,.1,2.143Zm0,0" transform="translate(-255.24 -216.209)" fill="#4d7cff"/>
    </g>
  </g>
</svg>
