<svg xmlns="http://www.w3.org/2000/svg" width="45" height="55" viewBox="0 0 45 55">
  <g id="Group_1337" data-name="Group 1337" transform="translate(-485 -3240)">
    <circle id="Ellipse_87" data-name="Ellipse 87" cx="13.5" cy="13.5" r="13.5" transform="translate(503 3242)" fill="#4d7cff" opacity="0.2"/>
    <g id="aproval" transform="translate(484.498 3240)">
      <path id="Path_1666" data-name="Path 1666" d="M161.535,62.148a1.074,1.074,0,1,0-1.074-1.074c0,.018,0,.037,0,.054A1.076,1.076,0,0,0,161.535,62.148Zm0,0" transform="translate(-142.776 -53.555)" fill="#4d7cff"/>
      <path id="Path_1667" data-name="Path 1667" d="M120.775,143.536a1.075,1.075,0,0,0,0,1.519L124,148.278a1.074,1.074,0,0,0,1.519,0l6.445-6.445a1.074,1.074,0,1,0-1.519-1.519L124.757,146l-2.463-2.463A1.075,1.075,0,0,0,120.775,143.536Zm0,0" transform="translate(-107.073 -124.961)" fill="#4d7cff"/>
      <path id="Path_1668" data-name="Path 1668" d="M84.094,78.936a11.822,11.822,0,0,0-7.182-10.872,1.074,1.074,0,1,0-.846,1.975,9.668,9.668,0,1,1-7.576,0,1.074,1.074,0,0,0-.846-1.975A11.817,11.817,0,1,0,84.094,78.936Zm0,0" transform="translate(-53.519 -60.674)" fill="#4d7cff"/>
      <path id="Path_1669" data-name="Path 1669" d="M11.239,47.48a3.214,3.214,0,0,0,1.243,2.542,6.445,6.445,0,0,0,12.552,0,3.212,3.212,0,0,0,1.243-2.54V41.107A3.121,3.121,0,0,0,27.866,39.2a30.505,30.505,0,0,1,4.1-8.377c1.077-1.858,4.975-5.462,5.053-11.732C37.146,8.752,29.041.1,18.944,0h-.185A18.163,18.163,0,0,0,.5,17.9C.384,25,4.958,29.748,5.554,30.819a30.489,30.489,0,0,1,4.1,8.377,3.122,3.122,0,0,0,1.588,1.911ZM24.13,43.935H13.388V41.464H24.13Zm0,3.545a1.076,1.076,0,0,1-1.074,1.074H14.462a1.075,1.075,0,0,1-1.074-1.074v-1.4H24.13Zm-5.371,5.371a4.331,4.331,0,0,1-3.717-2.15h7.434a4.33,4.33,0,0,1-3.717,2.15ZM7.3,29.574c-.626-1.115-4.759-5.341-4.652-11.634a15.938,15.938,0,0,1,16.1-15.792h.167c8.888.086,16.06,7.737,15.946,16.912-.068,5.462-3.521,8.582-4.656,10.513a32.832,32.832,0,0,0-4.41,9.021,1.035,1.035,0,0,1-1.007.721H12.722a1.034,1.034,0,0,1-1.008-.721A32.837,32.837,0,0,0,7.3,29.574Zm0,0" fill="#4d7cff"/>
    </g>
  </g>
</svg>
